<svg width="256" height="256" viewBox="0 0 256 256" fill="none" xmlns="http://www.w3.org/2000/svg">
<path d="M128 256C198.692 256 256 198.692 256 128C256 57.3076 198.692 0 128 0C57.3076 0 0 57.3076 0 128C0 198.692 57.3076 256 128 256Z" fill="#F0EBE0"/>
<path d="M86 69.5C92.9036 69.5 98.5 75.0964 98.5 82C98.5 88.9036 92.9036 94.5 86 94.5C79.0964 94.5 73.5 88.9036 73.5 82C73.5 75.0964 79.0964 69.5 86 69.5Z" stroke="#9BA1B5" stroke-width="5"/>
<path d="M126.5 69.5C133.758 69.5 139.5 75.1731 139.5 82C139.5 88.8269 133.758 94.5 126.5 94.5C119.242 94.5 113.5 88.8269 113.5 82C113.5 75.1731 119.242 69.5 126.5 69.5Z" stroke="#9BA1B5" stroke-width="5"/>
<path d="M167 69.5C173.904 69.5 179.5 75.0964 179.5 82C179.5 88.9036 173.904 94.5 167 94.5C160.096 94.5 154.5 88.9036 154.5 82C154.5 75.0964 160.096 69.5 167 69.5Z" stroke="#9BA1B5" stroke-width="5"/>
<path d="M167 114.5C173.904 114.5 179.5 120.096 179.5 127C179.5 133.904 173.904 139.5 167 139.5C160.096 139.5 154.5 133.904 154.5 127C154.5 120.096 160.096 114.5 167 114.5Z" stroke="#9BA1B5" stroke-width="5"/>
<path d="M209 114.5C215.904 114.5 221.5 120.096 221.5 127C221.5 133.904 215.904 139.5 209 139.5C202.096 139.5 196.5 133.904 196.5 127C196.5 120.096 202.096 114.5 209 114.5Z" stroke="#9BA1B5" stroke-width="5"/>
<path d="M47 114.5C53.9036 114.5 59.5 120.096 59.5 127C59.5 133.904 53.9036 139.5 47 139.5C40.0964 139.5 34.5 133.904 34.5 127C34.5 120.096 40.0964 114.5 47 114.5Z" stroke="#9BA1B5" stroke-width="5"/>
<path d="M47 159.5C53.9036 159.5 59.5 165.096 59.5 172C59.5 178.904 53.9036 184.5 47 184.5C40.0964 184.5 34.5 178.904 34.5 172C34.5 165.096 40.0964 159.5 47 159.5Z" stroke="#9BA1B5" stroke-width="5"/>
<path d="M47 69.5C53.9036 69.5 59.5 75.0964 59.5 82C59.5 88.9036 53.9036 94.5 47 94.5C40.0964 94.5 34.5 88.9036 34.5 82C34.5 75.0964 40.0964 69.5 47 69.5Z" stroke="#9BA1B5" stroke-width="5"/>
<path d="M126.5 25.5C133.758 25.5 139.5 31.1731 139.5 38C139.5 44.8269 133.758 50.5 126.5 50.5C119.242 50.5 113.5 44.8269 113.5 38C113.5 31.1731 119.242 25.5 126.5 25.5Z" stroke="#9BA1B5" stroke-width="5"/>
<path d="M86.5 25.5C93.7576 25.5 99.5 31.1731 99.5 38C99.5 44.8269 93.7576 50.5 86.5 50.5C79.2424 50.5 73.5 44.8269 73.5 38C73.5 31.1731 79.2424 25.5 86.5 25.5Z" stroke="#9BA1B5" stroke-width="5"/>
<path d="M166.5 25.5C173.758 25.5 179.5 31.1731 179.5 38C179.5 44.8269 173.758 50.5 166.5 50.5C159.242 50.5 153.5 44.8269 153.5 38C153.5 31.1731 159.242 25.5 166.5 25.5Z" stroke="#9BA1B5" stroke-width="5"/>
<path d="M208.5 69.5C215.758 69.5 221.5 75.1731 221.5 82C221.5 88.8269 215.758 94.5 208.5 94.5C201.242 94.5 195.5 88.8269 195.5 82C195.5 75.1731 201.242 69.5 208.5 69.5Z" stroke="#9BA1B5" stroke-width="5"/>
<path d="M208.5 159.5C215.758 159.5 221.5 165.173 221.5 172C221.5 178.827 215.758 184.5 208.5 184.5C201.242 184.5 195.5 178.827 195.5 172C195.5 165.173 201.242 159.5 208.5 159.5Z" stroke="#9BA1B5" stroke-width="5"/>
<path d="M168.5 204.5C175.758 204.5 181.5 210.173 181.5 217C181.5 223.827 175.758 229.5 168.5 229.5C161.242 229.5 155.5 223.827 155.5 217C155.5 210.173 161.242 204.5 168.5 204.5Z" stroke="#9BA1B5" stroke-width="5"/>
<path d="M85.5 204.5C92.7576 204.5 98.5 210.173 98.5 217C98.5 223.827 92.7576 229.5 85.5 229.5C78.2424 229.5 72.5 223.827 72.5 217C72.5 210.173 78.2424 204.5 85.5 204.5Z" stroke="#9BA1B5" stroke-width="5"/>
<path d="M126.5 204.5C133.758 204.5 139.5 210.173 139.5 217C139.5 223.827 133.758 229.5 126.5 229.5C119.242 229.5 113.5 223.827 113.5 217C113.5 210.173 119.242 204.5 126.5 204.5Z" stroke="#9BA1B5" stroke-width="5"/>
<path d="M126.5 114.5C133.758 114.5 139.5 120.173 139.5 127C139.5 133.827 133.758 139.5 126.5 139.5C119.242 139.5 113.5 133.827 113.5 127C113.5 120.173 119.242 114.5 126.5 114.5Z" stroke="#9BA1B5" stroke-width="5"/>
<path d="M85 114.5C91.9036 114.5 97.5 120.096 97.5 127C97.5 133.904 91.9036 139.5 85 139.5C78.0964 139.5 72.5 133.904 72.5 127C72.5 120.096 78.0964 114.5 85 114.5Z" stroke="#9BA1B5" stroke-width="5"/>
<path d="M85 159.5C91.9036 159.5 97.5 165.096 97.5 172C97.5 178.904 91.9036 184.5 85 184.5C78.0964 184.5 72.5 178.904 72.5 172C72.5 165.096 78.0964 159.5 85 159.5Z" stroke="#9BA1B5" stroke-width="5"/>
<path d="M126.5 159.5C133.758 159.5 139.5 165.173 139.5 172C139.5 178.827 133.758 184.5 126.5 184.5C119.242 184.5 113.5 178.827 113.5 172C113.5 165.173 119.242 159.5 126.5 159.5Z" stroke="#9BA1B5" stroke-width="5"/>
<path d="M168 159.5C174.904 159.5 180.5 165.096 180.5 172C180.5 178.904 174.904 184.5 168 184.5C161.096 184.5 155.5 178.904 155.5 172C155.5 165.096 161.096 159.5 168 159.5Z" stroke="#9BA1B5" stroke-width="5"/>
</svg>
