<svg width="256" height="256" viewBox="0 0 256 256" fill="none" xmlns="http://www.w3.org/2000/svg">
<path d="M128 256C198.692 256 256 198.692 256 128C256 57.3076 198.692 0 128 0C57.3076 0 0 57.3076 0 128C0 198.692 57.3076 256 128 256Z" fill="#1E2230"/>
<path d="M96 86C96 79.373 101.373 74 108 74H150C170.987 74 188 91.0132 188 112V126C188 146.987 170.987 164 150 164H110C101.716 164 95 157.284 95 149V86Z" fill="#9BA1B5"/>
<path d="M95 104C95 96.268 88.732 90 81 90C73.268 90 67 96.268 67 104V128C67 135.732 73.268 142 81 142H95V104Z" fill="#9BA1B5"/>
<path d="M110 170H172C175.314 170 178 172.686 178 176V186C178 189.314 175.314 192 172 192H110C106.686 192 104 189.314 104 186V176C104 172.686 106.686 170 110 170Z" fill="#9BA1B5"/>
</svg>
