<svg width="256" height="256" viewBox="0 0 256 256" fill="none" xmlns="http://www.w3.org/2000/svg">
<path d="M128 256C198.692 256 256 198.692 256 128C256 57.3076 198.692 0 128 0C57.3076 0 0 57.3076 0 128C0 198.692 57.3076 256 128 256Z" fill="#1E2230"/>
<path d="M128.5 28C184.005 28 229 72.9954 229 128.5C229 184.005 184.005 229 128.5 229C72.9954 229 28 184.005 28 128.5C28 72.9954 72.9954 28 128.5 28Z" stroke="#9BA1B5" stroke-width="14"/>
<path d="M123.798 90.4164C126.602 88.3793 130.398 88.3793 133.202 90.4164L162.316 111.568C165.119 113.606 166.293 117.216 165.222 120.513L154.101 154.737C153.03 158.034 149.959 160.265 146.493 160.265H110.507C107.041 160.265 103.97 158.034 102.899 154.737L91.7783 120.513C90.7073 117.216 91.8806 113.606 94.6845 111.568L123.798 90.4164Z" fill="#9BA1B5"/>
<line x1="128" y1="39" x2="128" y2="118" stroke="#9BA1B5" stroke-width="20" stroke-linecap="round"/>
<line x1="208.076" y1="85.6603" x2="139.66" y2="125.16" stroke="#9BA1B5" stroke-width="20" stroke-linecap="round"/>
<line x1="183.861" y1="198.004" x2="128" y2="142.142" stroke="#9BA1B5" stroke-width="20" stroke-linecap="round"/>
<line x1="64" y1="201.861" x2="119.861" y2="146" stroke="#9BA1B5" stroke-width="20" stroke-linecap="round"/>
<line x1="114.076" y1="125.16" x2="45.6603" y2="85.6603" stroke="#9BA1B5" stroke-width="20" stroke-linecap="round"/>
</svg>
