<svg width="256" height="256" viewBox="0 0 256 256" fill="none" xmlns="http://www.w3.org/2000/svg">
<path d="M128 256C198.692 256 256 198.692 256 128C256 57.3076 198.692 0 128 0C57.3076 0 0 57.3076 0 128C0 198.692 57.3076 256 128 256Z" fill="#F0EBE0"/>
<path d="M123.798 90.4164C126.602 88.3793 130.398 88.3793 133.202 90.4164L162.316 111.568C165.119 113.606 166.293 117.216 165.222 120.513L154.101 154.737C153.03 158.034 149.959 160.265 146.493 160.265H110.507C107.041 160.265 103.97 158.034 102.899 154.737L91.7783 120.513C90.7073 117.216 91.8806 113.606 94.6845 111.568L123.798 90.4164Z" fill="#1E2230"/>
<path d="M66.7977 40.4164C69.6016 38.3793 73.3984 38.3793 76.2023 40.4164L92.9518 52.5856C95.7557 54.6228 96.9289 58.2337 95.8579 61.5299L89.4602 81.2201C88.3892 84.5163 85.3176 86.748 81.8518 86.748H61.1482C57.6824 86.748 54.6108 84.5163 53.5398 81.2201L47.1421 61.5299C46.0711 58.2337 47.2443 54.6228 50.0482 52.5856L66.7977 40.4164Z" fill="#1E2230"/>
<path d="M123.798 187.416C126.602 185.379 130.398 185.379 133.202 187.416L149.952 199.586C152.756 201.623 153.929 205.234 152.858 208.53L146.46 228.22C145.389 231.516 142.318 233.748 138.852 233.748H118.148C114.682 233.748 111.611 231.516 110.54 228.22L104.142 208.53C103.071 205.234 104.244 201.623 107.048 199.586L123.798 187.416Z" fill="#1E2230"/>
<path d="M178.798 40.4164C181.602 38.3793 185.398 38.3793 188.202 40.4164L204.952 52.5856C207.756 54.6228 208.929 58.2337 207.858 61.5299L201.46 81.2201C200.389 84.5163 197.318 86.748 193.852 86.748H173.148C169.682 86.748 166.611 84.5163 165.54 81.2201L159.142 61.5299C158.071 58.2337 159.244 54.6228 162.048 52.5856L178.798 40.4164Z" fill="#1E2230"/>
<path d="M187.536 144.186C188.078 140.763 190.763 138.078 194.186 137.536L214.635 134.297C218.058 133.755 221.441 135.479 223.014 138.567L232.414 157.014C233.987 160.102 233.393 163.852 230.942 166.303L216.303 180.942C213.852 183.393 210.102 183.987 207.014 182.414L188.567 173.014C185.479 171.441 183.755 168.058 184.297 164.635L187.536 144.186Z" fill="#1E2230"/>
<path d="M69.2456 171.596C68.7034 175.019 66.0187 177.703 62.5955 178.246L42.1469 181.484C38.7238 182.026 35.3408 180.303 33.7674 177.215L24.3682 158.768C22.7947 155.68 23.3887 151.93 25.8394 149.479L40.479 134.839C42.9297 132.389 46.6797 131.795 49.7678 133.368L68.2147 142.767C71.3028 144.341 73.0265 147.724 72.4843 151.147L69.2456 171.596Z" fill="#1E2230"/>
</svg>
