<svg width="261" height="265" viewBox="0 0 261 265" fill="none" xmlns="http://www.w3.org/2000/svg">
<path d="M128 256C198.692 256 256 198.692 256 128C256 57.3076 198.692 0 128 0C57.3076 0 0 57.3076 0 128C0 198.692 57.3076 256 128 256Z" fill="#C8D442"/>
<path d="M18.2096 123.213L29.4696 104.206C33.8888 96.7457 42.6923 93.0863 51.0973 95.2155C57.8172 96.9178 63.1338 102.05 65.0716 108.706L76.6081 148.333C81.2243 164.189 90.2095 178.426 102.536 189.416L108.734 194.942C120.941 205.825 136.74 211.814 153.095 211.757L156.869 211.744C178.058 211.671 197.623 200.375 208.282 182.061C217.542 166.149 218.947 146.856 212.089 129.77L209.532 123.4C204.529 110.936 196.218 100.073 185.496 91.9843L145.459 61.7804C139.969 57.6386 137.449 50.641 139.038 43.95C140.866 36.2554 147.674 30.7762 155.581 30.6354L179.29 30.2132" stroke="#F0EBE0" stroke-width="14.08" stroke-linecap="round"/>
</svg>
